<svg width="21" height="20" viewBox="0 0 21 20" fill="none" xmlns="http://www.w3.org/2000/svg">
<g clip-path="url(#clip0)">
<path d="M14.4223 1.5166L14.4224 1.51671L15.2381 2.13293C15.2381 2.13293 15.2381 2.13293 15.2381 2.13294C15.8404 2.58769 16.2355 3.26473 16.3351 4.01266C16.4348 4.76078 16.2307 5.51764 15.7688 6.11417L15.7293 6.08356L15.7688 6.11417L8.67723 15.2709L8.6377 15.2403L8.67723 15.2709C8.62458 15.3389 8.55489 15.3919 8.47522 15.4245M14.4223 1.5166L3.60714 17.363M14.4223 1.5166C13.1866 0.589832 11.4361 0.82402 10.4875 2.04309L10.4874 2.04322L3.36039 11.2653L3.36034 11.2654C3.30006 11.3436 3.26466 11.4383 3.25891 11.5369L3.25891 11.537L2.9508 16.9276L2.9508 16.9276C2.94122 17.0957 3.01856 17.2569 3.15547 17.3546C3.29255 17.4524 3.47022 17.4731 3.62607 17.4093L3.60714 17.363M14.4223 1.5166L3.60714 17.363M8.47522 15.4245L8.45631 15.3782L8.47525 15.4245L8.47522 15.4245ZM8.47522 15.4245L3.62608 17.4093L3.60714 17.363M14.6472 2.91509L14.6472 2.9151C15.0404 3.21189 15.2982 3.65381 15.3634 4.14211C15.4285 4.63039 15.2952 5.12438 14.9936 5.51392L14.4998 6.15135L10.7509 3.30534L11.2629 2.64267C11.263 2.64263 11.263 2.64258 11.263 2.64253C11.8825 1.84696 13.0249 1.694 13.8316 2.29892C13.8316 2.29893 13.8317 2.29895 13.8317 2.29897L14.6472 2.91509ZM3.97382 16.2073L4.18371 12.5349L7.27757 14.8552L3.97382 16.2073ZM13.8996 6.92641L8.18231 14.3083L4.42514 11.4906L10.1514 4.08099L13.8996 6.92641Z" fill="#5C97BC" stroke="white" stroke-width="0.1"/>
<path d="M18.5598 18.0713H0.440161C0.169426 18.0713 -0.05 18.2908 -0.05 18.5615C-0.05 18.8322 0.169426 19.0517 0.440161 19.0517H18.5598C18.8306 19.0517 19.05 18.8322 19.05 18.5615C19.05 18.2908 18.8306 18.0713 18.5598 18.0713Z" fill="#5C97BC" stroke="white" stroke-width="0.1"/>
</g>
<defs>
<clipPath id="clip0">
<rect width="19" height="19" fill="#5C97BC"/>
</clipPath>
</defs>
</svg>
