<svg xmlns="http://www.w3.org/2000/svg" width="85" height="82" viewBox="0 0 85 82">
    <g fill="none" fill-rule="evenodd" stroke="#4A4A4A" stroke-linecap="round" stroke-linejoin="round" stroke-width="1.5">
        <path d="M39.656 65H79.4a4.8 4.8 0 0 0 4.8-4.8V5.8A4.8 4.8 0 0 0 79.4 1H5.8A4.8 4.8 0 0 0 1 5.8v54.4A4.8 4.8 0 0 0 5.8 65H17a3.2 3.2 0 0 1 3.2 3.2V81l16.227-14.752A4.8 4.8 0 0 1 39.656 65z"/>
        <path d="M44.2 13.8l5.933 12.64L63.4 28.467l-9.6 9.84L56.066 52.2 44.2 45.64 32.334 52.2 34.6 38.307l-9.6-9.84 13.267-2.027z"/>
    </g>
</svg>
