<svg xmlns="http://www.w3.org/2000/svg" width="56" height="49" viewBox="0 0 56 49">
    <g fill="none" fill-rule="evenodd" stroke="#4A4A4A" stroke-linecap="round" stroke-linejoin="round" stroke-width="1.5">
        <path d="M4.86 32.842c0 2.74 1.29 4.825 3.86 4.825 2.569 0 3.859-2.085 3.859-4.825 0-2.741-1.29-4.824-3.86-4.824S4.86 30.1 4.86 32.842zM16.439 47.316v-1.93c-.385-5.04-2.034-5.79-7.72-5.79-5.685 0-7.334.75-7.719 5.79v1.93M4.86 5.825c0 2.74 1.29 4.824 3.86 4.824 2.569 0 3.859-2.084 3.859-4.824 0-2.742-1.29-4.825-3.86-4.825S4.86 3.083 4.86 5.825zM12.958 12.891c-1.074-.255-2.459-.329-4.24-.329-5.683 0-7.332.75-7.718 5.79v1.93M51.176 5.825c0 2.74-1.29 4.824-3.86 4.824s-3.86-2.084-3.86-4.824c0-2.742 1.29-4.825 3.86-4.825s3.86 2.083 3.86 4.825zM43.077 12.891c1.074-.255 2.459-.329 4.24-.329 5.684 0 7.333.75 7.719 5.79v1.93M24.158 32.842c0 2.74 1.29 4.825 3.86 4.825s3.86-2.085 3.86-4.825c0-2.741-1.29-4.824-3.86-4.824s-3.86 2.083-3.86 4.824zM35.737 47.316v-1.93c-.385-5.04-2.034-5.79-7.72-5.79-5.685 0-7.334.75-7.719 5.79v1.93M43.456 32.842c0 2.74 1.29 4.825 3.86 4.825s3.86-2.085 3.86-4.825c0-2.741-1.29-4.824-3.86-4.824s-3.86 2.083-3.86 4.824zM55.035 47.316v-1.93c-.385-5.04-2.034-5.79-7.72-5.79-5.684 0-7.333.75-7.718 5.79v1.93M33.801 19.325c0 2.74 1.29 4.824 3.86 4.824s3.86-2.084 3.86-4.824c0-2.741-1.29-4.825-3.86-4.825s-3.86 2.084-3.86 4.825zM41.918 26.413c-1.076-.26-2.467-.334-4.258-.334-1.784 0-3.171.074-4.246.331M14.509 19.325c0 2.74 1.29 4.824 3.86 4.824s3.86-2.084 3.86-4.824c0-2.741-1.29-4.825-3.86-4.825s-3.86 2.084-3.86 4.825zM22.607 26.413c-1.077-.26-2.466-.334-4.257-.334-1.785 0-3.172.074-4.247.331M24.158 5.825c0 2.74 1.29 4.824 3.86 4.824s3.86-2.084 3.86-4.824c0-2.742-1.29-4.825-3.86-4.825s-3.86 2.083-3.86 4.825zM32.262 12.896c-1.076-.26-2.466-.334-4.257-.334-1.785 0-3.171.074-4.246.332"/>
    </g>
</svg>
