<svg xmlns="http://www.w3.org/2000/svg" width="54" height="52" viewBox="0 0 54 52">
    <g fill="none" fill-rule="evenodd" stroke="#4A4A4A" stroke-linecap="round" stroke-linejoin="round" stroke-width="2">
        <path d="M25.16 41H50a3 3 0 0 0 3-3V4a3 3 0 0 0-3-3H4a3 3 0 0 0-3 3v34a3 3 0 0 0 3 3h7a2 2 0 0 1 2 2v8l10.142-9.22A3 3 0 0 1 25.16 41z"/>
        <path d="M33 11s4 4.125 4 10-4 10-4 10M25 15a2 2 0 1 1-3.999.001A2 2 0 0 1 25 15zM25 27a2 2 0 1 1-3.999.001A2 2 0 0 1 25 27z"/>
    </g>
</svg>
