<svg xmlns="http://www.w3.org/2000/svg" width="18" height="17" viewBox="0 0 18 17">
    <g fill="#5C97BC" fill-rule="evenodd">
        <path d="M13.887 1.36c1.288 0 2.332 1.075 2.332 2.4v6.4c0 1.325-1.044 2.4-2.332 2.4H6.792l-2.624 2.4v-2.4h-.39c-1.287 0-2.332-1.075-2.332-2.4v-6.4c0-1.325 1.045-2.4 2.333-2.4h10.108zm0-1.2H3.779c-1.933 0-3.5 1.612-3.5 3.6v6.4c0 1.68 1.13 3.138 2.722 3.512v1.288c0 .474.27.903.69 1.097.42.193.911.115 1.254-.201L7.24 13.76h6.648c1.932 0 3.499-1.612 3.499-3.6v-6.4c0-1.988-1.567-3.6-3.5-3.6z"/>
        <ellipse cx="8.833" cy="6.96" rx="1" ry="1"/>
        <ellipse cx="12.72" cy="6.96" rx="1" ry="1"/>
        <ellipse cx="4.992" cy="6.96" rx="1" ry="1"/>
    </g>
</svg>
