<svg width="36" height="32" viewBox="0 0 37 32" fill="none" xmlns="http://www.w3.org/2000/svg">
<path d="M12.6582 27.4033L12.6562 27.4016L12.6522 27.3981L12.6503 27.3965L12.6395 27.3873C9.22512 24.5017 6.25279 21.9896 4.18036 19.5096L4.37219 19.3493L4.18035 19.5096C1.85213 16.7233 0.75 14.0581 0.75 11.1339C0.75 8.3058 1.72806 5.6871 3.51413 3.76568L3.51414 3.76567C5.32229 1.8207 7.80404 0.75 10.4982 0.75C12.5167 0.75 14.3674 1.3841 15.9924 2.63052L15.9924 2.63053C16.7276 3.1946 17.3995 3.87082 18 4.64899C18.6007 3.87085 19.2724 3.19461 20.0079 2.63052C21.6328 1.3841 23.4835 0.75 25.5021 0.75C28.196 0.75 30.678 1.82069 32.4861 3.76567L32.303 3.93589L32.4861 3.76568C34.2722 5.68711 35.25 8.30582 35.25 11.1339C35.25 14.0581 34.1481 16.7233 31.8199 19.5094C29.748 21.9889 26.777 24.5001 23.3643 27.3846L23.3489 27.3976L23.3488 27.3976C22.1783 28.3866 20.8532 29.5068 19.478 30.6995C19.0688 31.0546 18.5437 31.25 18 31.25C17.4561 31.25 16.9311 31.0546 16.5218 30.699L12.6582 27.4033ZM12.6582 27.4033C13.8266 28.3907 15.1496 29.509 16.5217 30.6989L12.6582 27.4033ZM6.09734 17.9287L5.9055 18.089L6.09734 17.9287C4.10783 15.5479 3.24141 13.4576 3.24141 11.1339C3.24141 8.91658 3.99289 6.89884 5.34439 5.4449C6.6748 4.01399 8.50315 3.22527 10.4982 3.22527C11.9529 3.22527 13.2872 3.68278 14.4697 4.58961C15.5278 5.40118 16.2691 6.43146 16.7059 7.15757L16.7059 7.15763C16.9807 7.61423 17.4659 7.88714 18 7.88714C18.5341 7.88714 19.0193 7.61423 19.2941 7.15763C19.7311 6.43147 20.4725 5.40119 21.5303 4.58963C22.7128 3.68279 24.0471 3.22527 25.5021 3.22527C27.4969 3.22527 29.3255 4.01401 30.6556 5.4449C32.0071 6.89884 32.7586 8.91658 32.7586 11.1339C32.7586 13.4576 31.8922 15.5479 29.9029 17.9287C27.9721 20.2394 25.0947 22.6721 21.7343 25.5125C20.6054 26.4663 19.3312 27.5434 17.9975 28.6935C16.6713 27.5456 15.3991 26.4703 14.2727 25.5182L14.2706 25.5164L14.2665 25.513C14.2661 25.5127 14.2657 25.5124 14.2654 25.5121C10.9052 22.6721 8.02794 20.2391 6.09734 17.9287Z" fill="transparent" stroke="#6F78E6" stroke-width="2.5"/>
</svg>
