<?xml version="1.0" encoding="UTF-8"?>
<svg id="Logo" xmlns="http://www.w3.org/2000/svg" viewBox="0 0 1413.84 1060.49">
  <defs>
    <style>
      .cls-1 {
        fill: #c7c8ca;
      }

      .cls-2 {
        fill: #6eaadc;
      }

      .cls-3 {
        fill: #4c4d4f;
      }
    </style>
  </defs>
  <g id="Logo-2" data-name="Logo">
    <g id="g174">
      <path id="path4" class="cls-1" d="M325.33,512.67c8.43,0,15.25,6.85,15.25,15.25s-6.83,15.23-15.25,15.23-15.23-6.83-15.23-15.23,6.83-15.25,15.23-15.25"/>
      <path id="path6" class="cls-1" d="M331.73,464.4c8.41,0,15.24,6.83,15.24,15.25s-6.83,15.23-15.24,15.23-15.21-6.83-15.21-15.23,6.83-15.25,15.21-15.25"/>
      <path id="path8" class="cls-1" d="M344,418.13c8.43,0,15.23,6.8,15.23,15.23s-6.8,15.21-15.23,15.21-15.21-6.79-15.21-15.21,6.84-15.23,15.21-15.23"/>
      <path id="path10" class="cls-1" d="M361.73,374.4c8.43,0,15.25,6.83,15.25,15.25s-6.83,15.24-15.25,15.24-15.21-6.84-15.21-15.24,6.81-15.25,15.21-15.25"/>
      <path id="path12" class="cls-1" d="M384.53,333.6c8.41,0,15.24,6.85,15.24,15.25s-6.83,15.23-15.24,15.23-15.21-6.85-15.21-15.23,6.83-15.25,15.21-15.25"/>
      <path id="path14" class="cls-1" d="M412,296.13c8.44,0,15.25,6.83,15.25,15.25s-6.81,15.2-15.25,15.2-15.21-6.8-15.21-15.2,6.81-15.25,15.21-15.25"/>
      <path id="path16" class="cls-1" d="M443.73,262.4c8.43,0,15.24,6.8,15.24,15.23s-6.81,15.21-15.24,15.21-15.23-6.81-15.23-15.21,6.83-15.23,15.23-15.23"/>
      <path id="path18" class="cls-1" d="M479.47,232.67c8.41,0,15.21,6.83,15.21,15.23s-6.8,15.23-15.21,15.23-15.24-6.83-15.24-15.23,6.84-15.23,15.24-15.23"/>
      <path id="path20" class="cls-1" d="M518.67,207.6c8.43,0,15.24,6.83,15.24,15.23s-6.81,15.21-15.24,15.21-15.21-6.85-15.21-15.21,6.83-15.23,15.21-15.23"/>
      <path id="path22" class="cls-1" d="M561.07,187.33c8.39,0,15.21,6.83,15.21,15.25s-6.83,15.2-15.21,15.2-15.24-6.84-15.24-15.2,6.81-15.25,15.24-15.25"/>
      <path id="path24" class="cls-1" d="M606,172.27c8.41,0,15.23,6.8,15.23,15.25s-6.81,15.2-15.23,15.2-15.21-6.83-15.21-15.2,6.8-15.25,15.21-15.25"/>
      <path id="path26" class="cls-1" d="M653.33,163.07c8.43,0,15.23,6.83,15.23,15.25s-6.8,15.2-15.23,15.2-15.21-6.8-15.21-15.2,6.8-15.25,15.21-15.25"/>
      <path id="path28" class="cls-1" d="M702.67,159.87c8.41,0,15.21,6.8,15.21,15.25s-6.8,15.19-15.21,15.19-15.21-6.83-15.21-15.19,6.83-15.25,15.21-15.25"/>
      <path id="path30" class="cls-1" d="M751.87,163.07c8.43,0,15.21,6.83,15.21,15.25s-6.79,15.2-15.21,15.2-15.23-6.8-15.23-15.2,6.83-15.25,15.23-15.25"/>
      <path id="path32" class="cls-1" d="M799.2,172.27c8.41,0,15.24,6.8,15.24,15.25s-6.83,15.2-15.24,15.2-15.24-6.83-15.24-15.2,6.83-15.25,15.24-15.25"/>
      <path id="path34" class="cls-1" d="M844.27,187.33c8.4,0,15.23,6.83,15.23,15.25s-6.83,15.2-15.23,15.2-15.21-6.84-15.21-15.2,6.8-15.25,15.21-15.25"/>
      <path id="path36" class="cls-1" d="M886.67,207.6c8.39,0,15.21,6.83,15.21,15.23s-6.83,15.21-15.21,15.21-15.24-6.85-15.24-15.21,6.8-15.23,15.24-15.23"/>
      <path id="path38" class="cls-1" d="M925.73,232.67c8.45,0,15.25,6.83,15.25,15.23s-6.8,15.23-15.25,15.23-15.21-6.83-15.21-15.23,6.81-15.23,15.21-15.23"/>
      <path id="path40" class="cls-1" d="M961.47,262.4c8.44,0,15.25,6.8,15.25,15.23s-6.81,15.21-15.25,15.21-15.24-6.81-15.24-15.21,6.85-15.23,15.24-15.23"/>
      <path id="path42" class="cls-1" d="M993.33,296.13c8.39,0,15.21,6.8,15.21,15.25s-6.83,15.2-15.21,15.2-15.21-6.8-15.21-15.2,6.79-15.25,15.21-15.25"/>
      <path id="path44" class="cls-1" d="M1020.8,333.6c8.44,0,15.25,6.85,15.25,15.25s-6.81,15.23-15.25,15.23-15.21-6.85-15.21-15.23,6.81-15.25,15.21-15.25"/>
      <path id="path46" class="cls-1" d="M1043.6,374.4c8.39,0,15.2,6.83,15.2,15.23s-6.81,15.27-15.2,15.27-15.25-6.84-15.25-15.27,6.83-15.23,15.25-15.23"/>
      <path id="path48" class="cls-1" d="M1061.33,418.13c8.4,0,15.21,6.8,15.21,15.23s-6.81,15.21-15.21,15.21-15.23-6.79-15.23-15.21,6.81-15.23,15.23-15.23"/>
      <path id="path50" class="cls-1" d="M1073.6,464.4c8.4,0,15.21,6.83,15.21,15.25s-6.81,15.2-15.21,15.2-15.23-6.8-15.23-15.2,6.81-15.25,15.23-15.25"/>
      <path id="path52" class="cls-1" d="M1079.87,512.67c8.4,0,15.21,6.85,15.21,15.25s-6.81,15.23-15.21,15.23-15.23-6.83-15.23-15.23,6.8-15.25,15.23-15.25"/>
      <path id="path54" class="cls-1" d="M365.6,512.67c8.41,0,15.23,6.85,15.23,15.25s-6.81,15.23-15.23,15.23-15.23-6.83-15.23-15.23,6.84-15.25,15.23-15.25"/>
      <path id="path56" class="cls-1" d="M371.87,468c8.43,0,15.24,6.83,15.24,15.25s-6.81,15.2-15.24,15.2-15.2-6.8-15.2-15.2,6.81-15.25,15.2-15.25"/>
      <path id="path58" class="cls-1" d="M383.87,425.33c8.44,0,15.25,6.83,15.25,15.25s-6.81,15.2-15.25,15.2-15.2-6.8-15.2-15.2,6.8-15.25,15.2-15.25"/>
      <path id="path60" class="cls-1" d="M401.07,385.2c8.39,0,15.23,6.85,15.23,15.25s-6.84,15.2-15.23,15.2-15.23-6.83-15.23-15.2,6.81-15.25,15.23-15.25"/>
      <path id="path62" class="cls-1" d="M423.07,347.87c8.41,0,15.21,6.85,15.21,15.27s-6.8,15.21-15.21,15.21-15.21-6.83-15.21-15.21,6.83-15.27,15.21-15.27"/>
      <path id="path64" class="cls-1" d="M449.6,313.87c8.39,0,15.21,6.83,15.21,15.25s-6.83,15.19-15.21,15.19-15.24-6.81-15.24-15.19,6.8-15.25,15.24-15.25"/>
      <path id="path66" class="cls-1" d="M480.13,283.6c8.41,0,15.21,6.8,15.21,15.23s-6.8,15.21-15.21,15.21-15.21-6.83-15.21-15.21,6.8-15.23,15.21-15.23"/>
      <path id="path68" class="cls-1" d="M514.27,257.2c8.41,0,15.24,6.85,15.24,15.27s-6.83,15.19-15.24,15.19-15.21-6.79-15.21-15.19,6.81-15.27,15.21-15.27"/>
      <path id="path70" class="cls-1" d="M551.73,235.47c8.41,0,15.25,6.8,15.25,15.23s-6.84,15.23-15.25,15.23-15.21-6.83-15.21-15.23,6.8-15.23,15.21-15.23"/>
      <path id="path72" class="cls-1" d="M592,218.4c8.41,0,15.23,6.85,15.23,15.25s-6.81,15.23-15.23,15.23-15.21-6.81-15.21-15.23,6.83-15.25,15.21-15.25"/>
      <path id="path74" class="cls-1" d="M634.67,206.8c8.41,0,15.21,6.8,15.21,15.25s-6.8,15.2-15.21,15.2-15.24-6.8-15.24-15.2,6.81-15.25,15.24-15.25"/>
      <path id="path76" class="cls-1" d="M679.47,200.67c8.43,0,15.23,6.83,15.23,15.25s-6.8,15.2-15.23,15.2-15.21-6.8-15.21-15.2,6.83-15.25,15.21-15.25"/>
      <path id="path78" class="cls-1" d="M725.6,200.67c8.39,0,15.21,6.83,15.21,15.23s-6.83,15.21-15.21,15.21-15.24-6.79-15.24-15.21,6.81-15.23,15.24-15.23"/>
      <path id="path80" class="cls-1" d="M770.4,206.8c8.4,0,15.21,6.83,15.21,15.27s-6.81,15.21-15.21,15.21-15.24-6.83-15.24-15.21,6.83-15.27,15.24-15.27"/>
      <path id="path82" class="cls-1" d="M813.2,218.4c8.4,0,15.23,6.83,15.23,15.23s-6.83,15.23-15.23,15.23-15.21-6.83-15.21-15.23,6.79-15.23,15.21-15.23"/>
      <path id="path84" class="cls-1" d="M853.47,235.33c8.39,0,15.21,6.83,15.21,15.25s-6.83,15.23-15.21,15.23-15.23-6.83-15.23-15.23,6.8-15.25,15.23-15.25"/>
      <path id="path86" class="cls-1" d="M890.93,257.2c8.4,0,15.23,6.83,15.23,15.25s-6.83,15.2-15.23,15.2-15.25-6.8-15.25-15.2,6.83-15.25,15.25-15.25"/>
      <path id="path88" class="cls-1" d="M925.07,283.47c8.39,0,15.21,6.83,15.21,15.25s-6.83,15.19-15.21,15.19-15.21-6.81-15.21-15.19,6.79-15.25,15.21-15.25"/>
      <path id="path90" class="cls-1" d="M955.6,313.87c8.41,0,15.23,6.85,15.23,15.25s-6.81,15.23-15.23,15.23-15.24-6.85-15.24-15.23,6.83-15.25,15.24-15.25"/>
      <path id="path92" class="cls-1" d="M982,347.87c8.36,0,15.2,6.83,15.2,15.27s-6.84,15.23-15.2,15.23-15.24-6.84-15.24-15.23,6.79-15.27,15.24-15.27"/>
      <path id="path94" class="cls-1" d="M1004.13,385.2c8.39,0,15.21,6.8,15.21,15.23s-6.83,15.21-15.21,15.21-15.24-6.83-15.24-15.21,6.8-15.23,15.24-15.23"/>
      <path id="path96" class="cls-1" d="M1021.2,425.33c8.39,0,15.21,6.83,15.21,15.25s-6.83,15.19-15.21,15.19-15.25-6.79-15.25-15.19,6.83-15.25,15.25-15.25"/>
      <path id="path98" class="cls-1" d="M1033.2,468c8.4,0,15.24,6.83,15.24,15.25s-6.84,15.23-15.24,15.23-15.23-6.83-15.23-15.23,6.85-15.25,15.23-15.25"/>
      <path id="path100" class="cls-1" d="M1039.6,512.67c8.41,0,15.21,6.85,15.21,15.25s-6.8,15.23-15.21,15.23-15.24-6.83-15.24-15.23,6.81-15.25,15.24-15.25"/>
      <path id="path102" class="cls-1" d="M405.73,512.67c8.41,0,15.24,6.85,15.24,15.25s-6.83,15.23-15.24,15.23-15.21-6.83-15.21-15.23,6.81-15.25,15.21-15.25"/>
      <path id="path104" class="cls-1" d="M414.13,463.07c8.41,0,15.24,6.85,15.24,15.27s-6.83,15.21-15.24,15.21-15.21-6.81-15.21-15.21,6.81-15.27,15.21-15.27"/>
      <path id="path106" class="cls-1" d="M430.4,416.67c8.41,0,15.24,6.8,15.24,15.25s-6.83,15.19-15.24,15.19-15.21-6.79-15.21-15.19,6.81-15.25,15.21-15.25"/>
      <path id="path108" class="cls-1" d="M453.73,374.13c8.43,0,15.23,6.85,15.23,15.25s-6.8,15.23-15.23,15.23-15.23-6.85-15.23-15.23,6.84-15.25,15.23-15.25"/>
      <path id="path110" class="cls-1" d="M483.47,336.27c8.43,0,15.24,6.8,15.24,15.23s-6.81,15.25-15.24,15.25-15.24-6.85-15.24-15.25,6.84-15.23,15.24-15.23"/>
      <path id="path112" class="cls-1" d="M518.8,303.47c8.4,0,15.21,6.8,15.21,15.23s-6.81,15.23-15.21,15.23-15.24-6.84-15.24-15.23,6.84-15.23,15.24-15.23"/>
      <path id="path114" class="cls-1" d="M559.2,276.8c8.44,0,15.23,6.83,15.23,15.25s-6.79,15.2-15.23,15.2-15.23-6.8-15.23-15.2,6.83-15.25,15.23-15.25"/>
      <path id="path116" class="cls-1" d="M603.73,256.93c8.43,0,15.21,6.85,15.21,15.23s-6.79,15.21-15.21,15.21-15.24-6.81-15.24-15.21,6.84-15.23,15.24-15.23"/>
      <path id="path118" class="cls-1" d="M651.73,244.4c8.41,0,15.21,6.83,15.21,15.25s-6.8,15.2-15.21,15.2-15.24-6.84-15.24-15.2,6.83-15.25,15.24-15.25"/>
      <path id="path120" class="cls-1" d="M702.53,240c8.43,0,15.24,6.85,15.24,15.25s-6.81,15.2-15.24,15.2-15.23-6.8-15.23-15.2,6.84-15.25,15.23-15.25"/>
      <path id="path122" class="cls-1" d="M753.47,244.4c8.41,0,15.23,6.83,15.23,15.25s-6.81,15.2-15.23,15.2-15.21-6.8-15.21-15.2,6.84-15.25,15.21-15.25"/>
      <path id="path124" class="cls-1" d="M801.47,256.8c8.4,0,15.23,6.83,15.23,15.23s-6.83,15.23-15.23,15.23-15.25-6.8-15.25-15.23,6.84-15.23,15.25-15.23"/>
      <path id="path126" class="cls-1" d="M846,276.8c8.43,0,15.24,6.85,15.24,15.23s-6.81,15.23-15.24,15.23-15.24-6.8-15.24-15.23,6.84-15.23,15.24-15.23"/>
      <path id="path128" class="cls-1" d="M886.27,303.47c8.43,0,15.23,6.8,15.23,15.25s-6.8,15.2-15.23,15.2-15.21-6.84-15.21-15.2,6.83-15.25,15.21-15.25"/>
      <path id="path130" class="cls-1" d="M921.73,336.13c8.4,0,15.23,6.85,15.23,15.23s-6.83,15.21-15.23,15.21-15.24-6.79-15.24-15.21,6.85-15.23,15.24-15.23"/>
      <path id="path132" class="cls-1" d="M951.33,374.13c8.43,0,15.24,6.8,15.24,15.23s-6.81,15.23-15.24,15.23-15.24-6.83-15.24-15.23,6.84-15.23,15.24-15.23"/>
      <path id="path134" class="cls-1" d="M974.67,416.67c8.43,0,15.24,6.83,15.24,15.25s-6.81,15.23-15.24,15.23-15.23-6.83-15.23-15.23,6.83-15.25,15.23-15.25"/>
      <path id="path136" class="cls-1" d="M990.93,463.07c8.41,0,15.27,6.85,15.27,15.27s-6.85,15.21-15.27,15.21-15.21-6.81-15.21-15.21,6.84-15.27,15.21-15.27"/>
      <path id="path138" class="cls-1" d="M999.33,512.67c8.43,0,15.24,6.85,15.24,15.25s-6.81,15.23-15.24,15.23-15.23-6.83-15.23-15.23,6.84-15.25,15.23-15.25"/>
      <path id="path140" class="cls-1" d="M446,512.67c8.43,0,15.21,6.85,15.21,15.25s-6.79,15.23-15.21,15.23-15.21-6.83-15.21-15.23,6.8-15.25,15.21-15.25"/>
      <path id="path142" class="cls-1" d="M455.2,465.2c8.44,0,15.23,6.83,15.23,15.25s-6.79,15.2-15.23,15.2-15.21-6.8-15.21-15.2,6.8-15.25,15.21-15.25"/>
      <path id="path144" class="cls-1" d="M472.67,421.33c8.4,0,15.21,6.83,15.21,15.27s-6.81,15.19-15.21,15.19-15.25-6.83-15.25-15.19,6.83-15.27,15.25-15.27"/>
      <path id="path146" class="cls-1" d="M497.6,381.73c8.39,0,15.21,6.83,15.21,15.25s-6.83,15.2-15.21,15.2-15.27-6.8-15.27-15.2,6.84-15.25,15.27-15.25"/>
      <path id="path148" class="cls-1" d="M528.93,347.47c8.43,0,15.21,6.83,15.21,15.27s-6.79,15.21-15.21,15.21-15.23-6.83-15.23-15.21,6.81-15.27,15.23-15.27"/>
      <path id="path150" class="cls-1" d="M566,319.33c8.43,0,15.23,6.83,15.23,15.23s-6.8,15.23-15.23,15.23-15.21-6.8-15.21-15.23,6.83-15.23,15.21-15.23"/>
      <path id="path152" class="cls-1" d="M607.87,298.13c8.39,0,15.21,6.8,15.21,15.23s-6.83,15.21-15.21,15.21-15.21-6.81-15.21-15.21,6.79-15.23,15.21-15.23"/>
      <path id="path154" class="cls-1" d="M653.73,284.8c8.43,0,15.24,6.83,15.24,15.23s-6.81,15.23-15.24,15.23-15.24-6.8-15.24-15.23,6.83-15.23,15.24-15.23"/>
      <path id="path156" class="cls-1" d="M702.67,280.13c8.43,0,15.24,6.85,15.24,15.25s-6.81,15.24-15.24,15.24-15.24-6.84-15.24-15.24,6.85-15.25,15.24-15.25"/>
      <path id="path158" class="cls-1" d="M751.6,284.8c8.41,0,15.21,6.83,15.21,15.23s-6.8,15.23-15.21,15.23-15.24-6.8-15.24-15.23,6.85-15.23,15.24-15.23"/>
      <path id="path160" class="cls-1" d="M797.47,298.13c8.43,0,15.21,6.8,15.21,15.23s-6.79,15.21-15.21,15.21-15.21-6.81-15.21-15.21,6.81-15.23,15.21-15.23"/>
      <path id="path162" class="cls-1" d="M839.33,319.33c8.43,0,15.21,6.83,15.21,15.23s-6.79,15.23-15.21,15.23-15.24-6.8-15.24-15.23,6.81-15.23,15.24-15.23"/>
      <path id="path164" class="cls-1" d="M876.4,347.47c8.44,0,15.23,6.83,15.23,15.27s-6.79,15.21-15.23,15.21-15.21-6.83-15.21-15.21,6.8-15.27,15.21-15.27"/>
      <path id="path166" class="cls-1" d="M907.73,381.73c8.41,0,15.21,6.83,15.21,15.25s-6.8,15.2-15.21,15.2-15.23-6.8-15.23-15.2,6.79-15.25,15.23-15.25"/>
      <path id="path168" class="cls-1" d="M932.67,421.33c8.4,0,15.21,6.83,15.21,15.27s-6.81,15.19-15.21,15.19-15.25-6.83-15.25-15.19,6.83-15.27,15.25-15.27"/>
      <path id="path170" class="cls-1" d="M950.13,465.2c8.39,0,15.2,6.83,15.2,15.25s-6.81,15.2-15.2,15.2-15.27-6.8-15.27-15.2,6.85-15.25,15.27-15.25"/>
      <path id="path172" class="cls-1" d="M959.2,512.67c8.41,0,15.21,6.85,15.21,15.25s-6.8,15.23-15.21,15.23-15.23-6.83-15.23-15.23,6.84-15.25,15.23-15.25"/>
    </g>
    <g id="g520">
      <path id="path176" class="cls-2" d="M486.8,512.67c8.39,0,15.21,6.85,15.21,15.25s-6.83,15.23-15.21,15.23-15.24-6.83-15.24-15.23,6.81-15.25,15.24-15.25"/>
      <path id="path178" class="cls-2" d="M496.8,468c8.41,0,15.21,6.85,15.21,15.25s-6.8,15.2-15.21,15.2-15.23-6.8-15.23-15.2,6.81-15.25,15.23-15.25"/>
      <path id="path180" class="cls-2" d="M515.6,427.2c8.41,0,15.23,6.8,15.23,15.25s-6.81,15.2-15.23,15.2-15.24-6.83-15.24-15.2,6.83-15.25,15.24-15.25"/>
      <path id="path182" class="cls-2" d="M541.87,391.47c8.43,0,15.21,6.85,15.21,15.25s-6.79,15.24-15.21,15.24-15.23-6.83-15.23-15.24,6.81-15.25,15.23-15.25"/>
      <path id="path184" class="cls-2" d="M574.8,361.87c8.39,0,15.21,6.83,15.21,15.27s-6.83,15.21-15.21,15.21-15.23-6.83-15.23-15.21,6.83-15.27,15.23-15.27"/>
      <path id="path186" class="cls-2" d="M613.2,339.47c8.4,0,15.21,6.85,15.21,15.25s-6.81,15.23-15.21,15.23-15.24-6.83-15.24-15.23,6.81-15.25,15.24-15.25"/>
      <path id="path188" class="cls-2" d="M656.13,325.2c8.41,0,15.21,6.83,15.21,15.23s-6.8,15.23-15.21,15.23-15.23-6.83-15.23-15.23,6.83-15.23,15.23-15.23"/>
      <path id="path190" class="cls-2" d="M702.67,320.27c8.43,0,15.21,6.8,15.21,15.27s-6.79,15.19-15.21,15.19-15.24-6.83-15.24-15.19,6.83-15.27,15.24-15.27"/>
      <path id="path192" class="cls-2" d="M749.07,325.2c8.39,0,15.21,6.83,15.21,15.23s-6.83,15.23-15.21,15.23-15.25-6.83-15.25-15.23,6.81-15.23,15.25-15.23"/>
      <path id="path194" class="cls-2" d="M792,339.47c8.43,0,15.21,6.83,15.21,15.25s-6.79,15.23-15.21,15.23-15.2-6.83-15.2-15.23,6.81-15.25,15.2-15.25"/>
      <path id="path196" class="cls-2" d="M830.53,361.87c8.39,0,15.21,6.83,15.21,15.27s-6.83,15.21-15.21,15.21-15.25-6.83-15.25-15.21,6.81-15.27,15.25-15.27"/>
      <path id="path198" class="cls-2" d="M863.47,391.47c8.39,0,15.21,6.83,15.21,15.25s-6.83,15.23-15.21,15.23-15.24-6.81-15.24-15.23,6.8-15.25,15.24-15.25"/>
      <path id="path200" class="cls-2" d="M889.73,427.2c8.4,0,15.2,6.83,15.2,15.25s-6.8,15.23-15.2,15.23-15.24-6.85-15.24-15.23,6.84-15.25,15.24-15.25"/>
      <path id="path202" class="cls-2" d="M908.53,467.87c8.41,0,15.23,6.87,15.23,15.27s-6.81,15.21-15.23,15.21-15.24-6.81-15.24-15.21,6.81-15.27,15.24-15.27"/>
      <path id="path204" class="cls-2" d="M918.67,512.67c8.41,0,15.23,6.85,15.23,15.25s-6.81,15.23-15.23,15.23-15.23-6.83-15.23-15.23,6.81-15.25,15.23-15.25"/>
      <path id="path206" class="cls-2" d="M527.07,512.67c8.43,0,15.23,6.85,15.23,15.25s-6.8,15.23-15.23,15.23-15.23-6.83-15.23-15.23,6.83-15.25,15.23-15.25"/>
      <path id="path208" class="cls-2" d="M539.6,468c8.43,0,15.21,6.85,15.21,15.25s-6.79,15.24-15.21,15.24-15.23-6.83-15.23-15.24,6.81-15.25,15.23-15.25"/>
      <path id="path210" class="cls-2" d="M562.67,428.8c8.4,0,15.23,6.8,15.23,15.25s-6.83,15.2-15.23,15.2-15.24-6.83-15.24-15.2,6.81-15.25,15.24-15.25"/>
      <path id="path212" class="cls-2" d="M594.67,397.07c8.41,0,15.21,6.8,15.21,15.25s-6.8,15.2-15.21,15.2-15.27-6.84-15.27-15.2,6.85-15.25,15.27-15.25"/>
      <path id="path214" class="cls-2" d="M634,374.13c8.43,0,15.21,6.83,15.21,15.23s-6.79,15.23-15.21,15.23-15.24-6.8-15.24-15.23,6.84-15.23,15.24-15.23"/>
      <path id="path216" class="cls-2" d="M678.8,362c8.41,0,15.23,6.83,15.23,15.27s-6.81,15.19-15.23,15.19-15.21-6.8-15.21-15.19,6.83-15.27,15.21-15.27"/>
      <path id="path218" class="cls-2" d="M726.8,362c8.41,0,15.23,6.83,15.23,15.27s-6.81,15.21-15.23,15.21-15.25-6.83-15.25-15.21,6.84-15.27,15.25-15.27"/>
      <path id="path220" class="cls-2" d="M771.6,374.27c8.44,0,15.21,6.8,15.21,15.23s-6.77,15.23-15.21,15.23-15.24-6.83-15.24-15.23,6.81-15.23,15.24-15.23"/>
      <path id="path222" class="cls-2" d="M810.93,397.07c8.4,0,15.23,6.83,15.23,15.23s-6.83,15.23-15.23,15.23-15.24-6.84-15.24-15.23,6.84-15.23,15.24-15.23"/>
      <path id="path224" class="cls-2" d="M842.93,428.93c8.43,0,15.23,6.8,15.23,15.23s-6.8,15.21-15.23,15.21-15.23-6.81-15.23-15.21,6.8-15.23,15.23-15.23"/>
      <path id="path226" class="cls-2" d="M866.13,468c8.4,0,15.24,6.83,15.24,15.25s-6.84,15.23-15.24,15.23-15.23-6.85-15.23-15.23,6.84-15.25,15.23-15.25"/>
      <path id="path228" class="cls-2" d="M878.67,512.67c8.43,0,15.25,6.85,15.25,15.25s-6.83,15.23-15.25,15.23-15.21-6.83-15.21-15.23,6.81-15.25,15.21-15.25"/>
      <path id="path230" class="cls-2" d="M567.6,512.67c8.4,0,15.23,6.85,15.23,15.25s-6.83,15.23-15.23,15.23-15.24-6.83-15.24-15.23,6.81-15.25,15.24-15.25"/>
      <path id="path232" class="cls-2" d="M581.73,472.8c8.43,0,15.25,6.85,15.25,15.27s-6.83,15.19-15.25,15.19-15.24-6.83-15.24-15.19,6.85-15.27,15.24-15.27"/>
      <path id="path234" class="cls-2" d="M606.67,439.6c8.4,0,15.21,6.85,15.21,15.23s-6.81,15.25-15.21,15.25-15.24-6.83-15.24-15.25,6.81-15.23,15.24-15.23"/>
      <path id="path236" class="cls-2" d="M640.4,415.33c8.41,0,15.23,6.85,15.23,15.27s-6.81,15.21-15.23,15.21-15.23-6.81-15.23-15.21,6.81-15.27,15.23-15.27"/>
      <path id="path238" class="cls-2" d="M680.67,402.27c8.39,0,15.2,6.83,15.2,15.25s-6.81,15.2-15.2,15.2-15.24-6.83-15.24-15.2,6.83-15.25,15.24-15.25"/>
      <path id="path240" class="cls-2" d="M724.67,402.27c8.4,0,15.21,6.83,15.21,15.25s-6.81,15.2-15.21,15.2-15.24-6.83-15.24-15.2,6.81-15.25,15.24-15.25"/>
      <path id="path242" class="cls-2" d="M764.93,415.33c8.39,0,15.21,6.85,15.21,15.27s-6.83,15.21-15.21,15.21-15.21-6.81-15.21-15.21,6.8-15.27,15.21-15.27"/>
      <path id="path244" class="cls-2" d="M798.67,439.6c8.39,0,15.21,6.85,15.21,15.23s-6.83,15.25-15.21,15.25-15.23-6.83-15.23-15.25,6.8-15.23,15.23-15.23"/>
      <path id="path246" class="cls-2" d="M823.6,472.8c8.41,0,15.21,6.85,15.21,15.25s-6.8,15.2-15.21,15.2-15.24-6.8-15.24-15.2,6.81-15.25,15.24-15.25"/>
      <path id="path248" class="cls-2" d="M837.73,512.67c8.37,0,15.21,6.85,15.21,15.25s-6.84,15.23-15.21,15.23-15.23-6.83-15.23-15.23,6.8-15.25,15.23-15.25"/>
      <path id="path250" class="cls-2" d="M608.67,512.67c8.4,0,15.21,6.85,15.21,15.25s-6.81,15.23-15.21,15.23-15.23-6.83-15.23-15.23,6.83-15.25,15.23-15.25"/>
      <path id="path252" class="cls-2" d="M633.6,469.33c8.44,0,15.25,6.85,15.25,15.27s-6.81,15.21-15.25,15.21-15.21-6.83-15.21-15.21,6.83-15.27,15.21-15.27"/>
      <path id="path254" class="cls-2" d="M676.67,444.13c8.43,0,15.24,6.8,15.24,15.23s-6.81,15.21-15.24,15.21-15.21-6.85-15.21-15.21,6.84-15.23,15.21-15.23"/>
      <path id="path256" class="cls-2" d="M728.67,444.13c8.43,0,15.27,6.83,15.27,15.25s-6.84,15.19-15.27,15.19-15.21-6.81-15.21-15.19,6.83-15.25,15.21-15.25"/>
      <path id="path258" class="cls-2" d="M771.87,469.33c8.44,0,15.28,6.83,15.28,15.23s-6.84,15.21-15.28,15.21-15.21-6.81-15.21-15.21,6.83-15.23,15.21-15.23"/>
      <path id="path260" class="cls-2" d="M796.93,512.67c8.4,0,15.21,6.85,15.21,15.25s-6.81,15.23-15.21,15.23-15.23-6.83-15.23-15.23,6.83-15.25,15.23-15.25"/>
      <path id="path262" class="cls-2" d="M1240.4,512.67c8.41,0,15.21,6.85,15.21,15.25s-6.8,15.23-15.21,15.23-15.24-6.83-15.24-15.23,6.81-15.25,15.24-15.25"/>
      <path id="path264" class="cls-2" d="M1236,464.27c8.43,0,15.21,6.85,15.21,15.25s-6.79,15.23-15.21,15.23-15.24-6.81-15.24-15.23,6.83-15.25,15.24-15.25"/>
      <path id="path266" class="cls-2" d="M1227.47,417.2c8.43,0,15.23,6.83,15.23,15.27s-6.8,15.23-15.23,15.23-15.24-6.84-15.24-15.23,6.83-15.27,15.24-15.27"/>
      <path id="path268" class="cls-2" d="M1214.93,371.73c8.43,0,15.21,6.83,15.21,15.27s-6.79,15.21-15.21,15.21-15.24-6.85-15.24-15.21,6.83-15.27,15.24-15.27"/>
      <path id="path270" class="cls-2" d="M1198.53,327.87c8.43,0,15.25,6.85,15.25,15.25s-6.83,15.2-15.25,15.2-15.21-6.8-15.21-15.2,6.81-15.25,15.21-15.25"/>
      <path id="path272" class="cls-2" d="M1178.53,286c8.41,0,15.21,6.83,15.21,15.25s-6.8,15.23-15.21,15.23-15.27-6.85-15.27-15.23,6.83-15.25,15.27-15.25"/>
      <path id="path274" class="cls-2" d="M1155.2,246.13c8.41,0,15.21,6.8,15.21,15.21s-6.8,15.24-15.21,15.24-15.25-6.84-15.25-15.24,6.81-15.21,15.25-15.21"/>
      <path id="path276" class="cls-2" d="M1128.67,208.53c8.41,0,15.21,6.85,15.21,15.23s-6.8,15.25-15.21,15.25-15.25-6.85-15.25-15.25,6.81-15.23,15.25-15.23"/>
      <path id="path278" class="cls-2" d="M1099.07,173.47c8.41,0,15.2,6.83,15.2,15.23s-6.79,15.23-15.2,15.23-15.25-6.83-15.25-15.23,6.81-15.23,15.25-15.23"/>
      <path id="path280" class="cls-2" d="M1066.53,141.07c8.43,0,15.21,6.85,15.21,15.25s-6.79,15.2-15.21,15.2-15.24-6.83-15.24-15.2,6.81-15.25,15.24-15.25"/>
      <path id="path282" class="cls-2" d="M1031.47,111.47c8.44,0,15.23,6.85,15.23,15.25s-6.79,15.24-15.23,15.24-15.21-6.84-15.21-15.24,6.8-15.25,15.21-15.25"/>
      <path id="path284" class="cls-2" d="M993.87,84.93c8.43,0,15.24,6.83,15.24,15.25s-6.81,15.23-15.24,15.23-15.24-6.85-15.24-15.23,6.84-15.25,15.24-15.25"/>
      <path id="path286" class="cls-2" d="M954,61.6c8.41,0,15.2,6.83,15.2,15.27s-6.79,15.21-15.2,15.21-15.24-6.83-15.24-15.21,6.85-15.27,15.24-15.27"/>
      <path id="path288" class="cls-2" d="M912.13,41.73c8.39,0,15.21,6.85,15.21,15.23s-6.83,15.23-15.21,15.23-15.24-6.84-15.24-15.23,6.8-15.23,15.24-15.23"/>
      <path id="path290" class="cls-2" d="M868.27,25.33c8.44,0,15.21,6.83,15.21,15.23s-6.77,15.25-15.21,15.25-15.21-6.85-15.21-15.25,6.83-15.23,15.21-15.23"/>
      <path id="path292" class="cls-2" d="M822.8,12.8c8.43,0,15.21,6.85,15.21,15.25s-6.79,15.2-15.21,15.2-15.23-6.83-15.23-15.2,6.81-15.25,15.23-15.25"/>
      <path id="path294" class="cls-2" d="M775.73,4.27c8.43,0,15.21,6.83,15.21,15.25s-6.79,15.23-15.21,15.23-15.21-6.85-15.21-15.23,6.81-15.25,15.21-15.25"/>
      <path id="path296" class="cls-2" d="M727.33,0c8.41,0,15.23,6.85,15.23,15.25s-6.81,15.23-15.23,15.23-15.24-6.85-15.24-15.23,6.83-15.25,15.24-15.25"/>
      <path id="path298" class="cls-2" d="M678,0c8.45,0,15.23,6.85,15.23,15.25s-6.77,15.23-15.23,15.23-15.21-6.85-15.21-15.23,6.79-15.25,15.21-15.25"/>
      <path id="path300" class="cls-2" d="M629.6,4.27c8.43,0,15.21,6.83,15.21,15.25s-6.79,15.23-15.21,15.23-15.24-6.85-15.24-15.23,6.81-15.25,15.24-15.25"/>
      <path id="path302" class="cls-2" d="M582.53,12.8c8.43,0,15.21,6.85,15.21,15.25s-6.79,15.2-15.21,15.2-15.23-6.83-15.23-15.2,6.8-15.25,15.23-15.25"/>
      <path id="path304" class="cls-2" d="M537.07,25.33c8.41,0,15.21,6.83,15.21,15.23s-6.8,15.25-15.21,15.25-15.25-6.85-15.25-15.25,6.83-15.23,15.25-15.23"/>
      <path id="path306" class="cls-2" d="M493.2,41.73c8.41,0,15.21,6.85,15.21,15.25s-6.8,15.2-15.21,15.2-15.24-6.8-15.24-15.2,6.83-15.25,15.24-15.25"/>
      <path id="path308" class="cls-2" d="M451.33,61.6c8.4,0,15.21,6.8,15.21,15.27s-6.81,15.19-15.21,15.19-15.24-6.83-15.24-15.19,6.8-15.27,15.24-15.27"/>
      <path id="path310" class="cls-2" d="M411.47,84.93c8.4,0,15.21,6.85,15.21,15.25s-6.81,15.23-15.21,15.23-15.23-6.85-15.23-15.23,6.8-15.25,15.23-15.25"/>
      <path id="path312" class="cls-2" d="M373.87,111.47c8.41,0,15.21,6.85,15.21,15.25s-6.8,15.24-15.21,15.24-15.24-6.84-15.24-15.24,6.83-15.25,15.24-15.25"/>
      <path id="path314" class="cls-2" d="M338.8,141.07c8.41,0,15.21,6.83,15.21,15.25s-6.8,15.2-15.21,15.2-15.24-6.83-15.24-15.2,6.81-15.25,15.24-15.25"/>
      <path id="path316" class="cls-2" d="M306.27,173.47c8.41,0,15.23,6.85,15.23,15.23s-6.81,15.23-15.23,15.23-15.23-6.83-15.23-15.23,6.8-15.23,15.23-15.23"/>
      <path id="path318" class="cls-2" d="M276.67,208.67c8.43,0,15.23,6.83,15.23,15.23s-6.8,15.23-15.23,15.23-15.21-6.83-15.21-15.23,6.8-15.23,15.21-15.23"/>
      <path id="path320" class="cls-2" d="M250.13,246.13c8.43,0,15.21,6.8,15.21,15.21s-6.79,15.24-15.21,15.24-15.23-6.84-15.23-15.24,6.8-15.21,15.23-15.21"/>
      <path id="path322" class="cls-2" d="M226.8,286c8.43,0,15.23,6.8,15.23,15.25s-6.8,15.2-15.23,15.2-15.24-6.83-15.24-15.2,6.81-15.25,15.24-15.25"/>
      <path id="path324" class="cls-2" d="M206.8,327.87c8.41,0,15.21,6.85,15.21,15.25s-6.8,15.2-15.21,15.2-15.21-6.8-15.21-15.2,6.8-15.25,15.21-15.25"/>
      <path id="path326" class="cls-2" d="M190.4,371.73c8.39,0,15.21,6.83,15.21,15.27s-6.83,15.21-15.21,15.21-15.24-6.81-15.24-15.21,6.81-15.27,15.24-15.27"/>
      <path id="path328" class="cls-2" d="M177.87,417.33c8.41,0,15.21,6.8,15.21,15.25s-6.8,15.2-15.21,15.2-15.21-6.84-15.21-15.2,6.81-15.25,15.21-15.25"/>
      <path id="path330" class="cls-2" d="M169.33,464.4c8.4,0,15.21,6.8,15.21,15.23s-6.81,15.21-15.21,15.21-15.23-6.81-15.23-15.21,6.8-15.23,15.23-15.23"/>
      <path id="path332" class="cls-2" d="M164.4,512.67c8.4,0,15.21,6.85,15.21,15.25s-6.81,15.23-15.21,15.23-15.25-6.83-15.25-15.23,6.81-15.25,15.25-15.25"/>
      <path id="path334" class="cls-2" d="M1200.27,512.67c8.43,0,15.23,6.85,15.23,15.25s-6.8,15.23-15.23,15.23-15.21-6.83-15.21-15.23,6.83-15.25,15.21-15.25"/>
      <path id="path336" class="cls-2" d="M1195.73,465.47c8.39,0,15.21,6.83,15.21,15.23s-6.83,15.23-15.21,15.23-15.21-6.83-15.21-15.23,6.81-15.23,15.21-15.23"/>
      <path id="path338" class="cls-2" d="M1186.8,419.47c8.41,0,15.21,6.8,15.21,15.25s-6.8,15.23-15.21,15.23-15.23-6.85-15.23-15.23,6.79-15.25,15.23-15.25"/>
      <path id="path340" class="cls-2" d="M1173.73,375.2c8.4,0,15.21,6.83,15.21,15.25s-6.81,15.19-15.21,15.19-15.23-6.81-15.23-15.19,6.85-15.25,15.23-15.25"/>
      <path id="path342" class="cls-2" d="M1156.93,332.8c8.39,0,15.21,6.83,15.21,15.25s-6.83,15.23-15.21,15.23-15.21-6.83-15.21-15.23,6.8-15.25,15.21-15.25"/>
      <path id="path344" class="cls-2" d="M1136.27,292.27c8.41,0,15.23,6.85,15.23,15.25s-6.81,15.23-15.23,15.23-15.21-6.83-15.21-15.23,6.81-15.25,15.21-15.25"/>
      <path id="path346" class="cls-2" d="M1112.27,254.13c8.41,0,15.24,6.83,15.24,15.23s-6.83,15.23-15.24,15.23-15.21-6.84-15.21-15.23,6.81-15.23,15.21-15.23"/>
      <path id="path348" class="cls-2" d="M1084.93,218.27c8.41,0,15.24,6.85,15.24,15.25s-6.83,15.24-15.24,15.24-15.21-6.84-15.21-15.24,6.8-15.25,15.21-15.25"/>
      <path id="path350" class="cls-2" d="M1054.53,185.2c8.43,0,15.25,6.83,15.25,15.25s-6.83,15.2-15.25,15.2-15.21-6.83-15.21-15.2,6.84-15.25,15.21-15.25"/>
      <path id="path352" class="cls-2" d="M1021.47,154.8c8.41,0,15.24,6.83,15.24,15.27s-6.83,15.21-15.24,15.21-15.2-6.85-15.2-15.21,6.79-15.27,15.2-15.27"/>
      <path id="path354" class="cls-2" d="M985.6,127.6c8.41,0,15.23,6.8,15.23,15.23s-6.81,15.21-15.23,15.21-15.2-6.85-15.2-15.21,6.8-15.23,15.2-15.23"/>
      <path id="path356" class="cls-2" d="M947.33,103.6c8.43,0,15.24,6.85,15.24,15.25s-6.81,15.2-15.24,15.2-15.21-6.84-15.21-15.2,6.81-15.25,15.21-15.25"/>
      <path id="path358" class="cls-2" d="M906.8,83.2c8.41,0,15.23,6.8,15.23,15.25s-6.81,15.2-15.23,15.2-15.23-6.84-15.23-15.2,6.83-15.25,15.23-15.25"/>
      <path id="path360" class="cls-2" d="M864.27,66.4c8.45,0,15.27,6.83,15.27,15.23s-6.81,15.23-15.27,15.23-15.21-6.84-15.21-15.23,6.85-15.23,15.21-15.23"/>
      <path id="path362" class="cls-2" d="M820,53.47c8.43,0,15.24,6.85,15.24,15.27s-6.81,15.23-15.24,15.23-15.21-6.84-15.21-15.23,6.83-15.27,15.21-15.27"/>
      <path id="path364" class="cls-2" d="M774.13,44.53c8.44,0,15.25,6.85,15.25,15.25s-6.81,15.24-15.25,15.24-15.21-6.87-15.21-15.24,6.83-15.25,15.21-15.25"/>
      <path id="path366" class="cls-2" d="M726.8,40.13c8.43,0,15.24,6.85,15.24,15.25s-6.81,15.2-15.24,15.2-15.24-6.83-15.24-15.2,6.83-15.25,15.24-15.25"/>
      <path id="path368" class="cls-2" d="M678.53,40.13c8.41,0,15.21,6.85,15.21,15.25s-6.8,15.2-15.21,15.2-15.24-6.83-15.24-15.2,6.85-15.25,15.24-15.25"/>
      <path id="path370" class="cls-2" d="M631.2,44.53c8.41,0,15.24,6.85,15.24,15.25s-6.83,15.24-15.24,15.24-15.21-6.87-15.21-15.24,6.8-15.25,15.21-15.25"/>
      <path id="path372" class="cls-2" d="M585.33,53.47c8.43,0,15.23,6.85,15.23,15.27s-6.8,15.23-15.23,15.23-15.21-6.84-15.21-15.23,6.83-15.27,15.21-15.27"/>
      <path id="path374" class="cls-2" d="M540.93,66.4c8.44,0,15.24,6.83,15.24,15.23s-6.8,15.23-15.24,15.23-15.21-6.84-15.21-15.23,6.8-15.23,15.21-15.23"/>
      <path id="path376" class="cls-2" d="M498.53,83.2c8.43,0,15.25,6.8,15.25,15.25s-6.83,15.2-15.25,15.2-15.23-6.84-15.23-15.2,6.83-15.25,15.23-15.25"/>
      <path id="path378" class="cls-2" d="M458,103.6c8.43,0,15.25,6.85,15.25,15.25s-6.83,15.2-15.25,15.2-15.21-6.83-15.21-15.2,6.81-15.25,15.21-15.25"/>
      <path id="path380" class="cls-2" d="M419.73,127.6c8.41,0,15.21,6.8,15.21,15.23s-6.8,15.21-15.21,15.21-15.23-6.81-15.23-15.21,6.83-15.23,15.23-15.23"/>
      <path id="path382" class="cls-2" d="M383.87,154.8c8.41,0,15.24,6.83,15.24,15.27s-6.83,15.21-15.24,15.21-15.21-6.85-15.21-15.21,6.8-15.27,15.21-15.27"/>
      <path id="path384" class="cls-2" d="M350.67,185.2c8.39,0,15.21,6.83,15.21,15.25s-6.83,15.2-15.21,15.2-15.21-6.83-15.21-15.2,6.81-15.25,15.21-15.25"/>
      <path id="path386" class="cls-2" d="M320.4,218.27c8.41,0,15.24,6.83,15.24,15.25s-6.83,15.23-15.24,15.23-15.24-6.85-15.24-15.23,6.84-15.25,15.24-15.25"/>
      <path id="path388" class="cls-2" d="M293.07,254.13c8.43,0,15.23,6.83,15.23,15.25s-6.8,15.2-15.23,15.2-15.21-6.83-15.21-15.2,6.8-15.25,15.21-15.25"/>
      <path id="path390" class="cls-2" d="M269.07,292.27c8.43,0,15.24,6.85,15.24,15.25s-6.81,15.23-15.24,15.23-15.24-6.83-15.24-15.23,6.85-15.25,15.24-15.25"/>
      <path id="path392" class="cls-2" d="M248.4,332.8c8.4,0,15.21,6.8,15.21,15.25s-6.81,15.2-15.21,15.2-15.21-6.83-15.21-15.2,6.8-15.25,15.21-15.25"/>
      <path id="path394" class="cls-2" d="M231.6,375.2c8.43,0,15.23,6.8,15.23,15.25s-6.8,15.19-15.23,15.19-15.21-6.81-15.21-15.19,6.83-15.25,15.21-15.25"/>
      <path id="path396" class="cls-2" d="M218.53,419.6c8.41,0,15.23,6.79,15.23,15.23s-6.81,15.21-15.23,15.21-15.24-6.85-15.24-15.21,6.85-15.23,15.24-15.23"/>
      <path id="path398" class="cls-2" d="M209.6,465.47c8.41,0,15.23,6.83,15.23,15.25s-6.81,15.2-15.23,15.2-15.24-6.83-15.24-15.2,6.83-15.25,15.24-15.25"/>
      <path id="path400" class="cls-2" d="M204.93,512.67c8.44,0,15.25,6.85,15.25,15.25s-6.81,15.23-15.25,15.23-15.21-6.83-15.21-15.23,6.84-15.25,15.21-15.25"/>
      <path id="path402" class="cls-2" d="M1160.4,512.67c8.39,0,15.2,6.85,15.2,15.25s-6.81,15.23-15.2,15.23-15.21-6.83-15.21-15.23,6.8-15.25,15.21-15.25"/>
      <path id="path404" class="cls-2" d="M1155.33,466.67c8.43,0,15.24,6.87,15.24,15.25s-6.81,15.2-15.24,15.2-15.21-6.84-15.21-15.2,6.81-15.25,15.21-15.25"/>
      <path id="path406" class="cls-2" d="M1146,422c8.43,0,15.24,6.85,15.24,15.25s-6.81,15.2-15.24,15.2-15.21-6.83-15.21-15.2,6.8-15.25,15.21-15.25"/>
      <path id="path408" class="cls-2" d="M1132.53,379.2c8.41,0,15.21,6.85,15.21,15.29s-6.8,15.19-15.21,15.19-15.23-6.83-15.23-15.19,6.83-15.29,15.23-15.29"/>
      <path id="path410" class="cls-2" d="M1115.07,338.13c8.44,0,15.25,6.83,15.25,15.25s-6.81,15.2-15.25,15.2-15.21-6.8-15.21-15.2,6.83-15.25,15.21-15.25"/>
      <path id="path412" class="cls-2" d="M1093.87,299.33c8.43,0,15.24,6.83,15.24,15.23s-6.81,15.23-15.24,15.23-15.21-6.83-15.21-15.23,6.84-15.23,15.21-15.23"/>
      <path id="path414" class="cls-2" d="M1069.2,262.93c8.41,0,15.25,6.83,15.25,15.25s-6.84,15.2-15.25,15.2-15.2-6.83-15.2-15.2,6.81-15.25,15.2-15.25"/>
      <path id="path416" class="cls-2" d="M1041.2,229.2c8.4,0,15.23,6.8,15.23,15.25s-6.83,15.2-15.23,15.2-15.24-6.83-15.24-15.2,6.85-15.25,15.24-15.25"/>
      <path id="path418" class="cls-2" d="M1010.13,198.13c8.44,0,15.24,6.83,15.24,15.25s-6.8,15.2-15.24,15.2-15.21-6.83-15.21-15.2,6.83-15.25,15.21-15.25"/>
      <path id="path420" class="cls-2" d="M976.27,170.27c8.4,0,15.2,6.83,15.2,15.25s-6.8,15.19-15.2,15.19-15.24-6.79-15.24-15.19,6.83-15.25,15.24-15.25"/>
      <path id="path422" class="cls-2" d="M939.73,145.73c8.43,0,15.24,6.83,15.24,15.23s-6.81,15.21-15.24,15.21-15.21-6.81-15.21-15.21,6.83-15.23,15.21-15.23"/>
      <path id="path424" class="cls-2" d="M900.93,124.67c8.43,0,15.25,6.8,15.25,15.23s-6.83,15.25-15.25,15.25-15.21-6.85-15.21-15.25,6.83-15.23,15.21-15.23"/>
      <path id="path426" class="cls-2" d="M859.87,107.33c8.41,0,15.24,6.83,15.24,15.21s-6.83,15.24-15.24,15.24-15.21-6.84-15.21-15.24,6.81-15.21,15.21-15.21"/>
      <path id="path428" class="cls-2" d="M816.93,94c8.41,0,15.23,6.83,15.23,15.25s-6.81,15.2-15.23,15.2-15.21-6.8-15.21-15.2,6.81-15.25,15.21-15.25"/>
      <path id="path430" class="cls-2" d="M772.27,84.93c8.41,0,15.24,6.85,15.24,15.25s-6.83,15.23-15.24,15.23-15.21-6.85-15.21-15.23,6.81-15.25,15.21-15.25"/>
      <path id="path432" class="cls-2" d="M726.13,80.27c8.41,0,15.23,6.85,15.23,15.23s-6.81,15.25-15.23,15.25-15.23-6.85-15.23-15.25,6.81-15.23,15.23-15.23"/>
      <path id="path434" class="cls-2" d="M679.07,80.27c8.43,0,15.24,6.83,15.24,15.23s-6.81,15.25-15.24,15.25-15.21-6.85-15.21-15.25,6.81-15.23,15.21-15.23"/>
      <path id="path436" class="cls-2" d="M633.07,84.93c8.39,0,15.21,6.85,15.21,15.25s-6.83,15.23-15.21,15.23-15.27-6.83-15.27-15.23,6.87-15.25,15.27-15.25"/>
      <path id="path438" class="cls-2" d="M588.4,94c8.41,0,15.24,6.83,15.24,15.25s-6.83,15.2-15.24,15.2-15.24-6.8-15.24-15.2,6.83-15.25,15.24-15.25"/>
      <path id="path440" class="cls-2" d="M545.47,107.33c8.41,0,15.21,6.8,15.21,15.21s-6.8,15.23-15.21,15.23-15.24-6.83-15.24-15.23,6.81-15.21,15.24-15.21"/>
      <path id="path442" class="cls-2" d="M504.4,124.67c8.4,0,15.21,6.8,15.21,15.21s-6.81,15.24-15.21,15.24-15.24-6.83-15.24-15.24,6.81-15.21,15.24-15.21"/>
      <path id="path444" class="cls-2" d="M465.47,145.73c8.43,0,15.23,6.83,15.23,15.23s-6.8,15.21-15.23,15.21-15.21-6.81-15.21-15.21,6.81-15.23,15.21-15.23"/>
      <path id="path446" class="cls-2" d="M429.07,170.27c8.41,0,15.21,6.83,15.21,15.25s-6.8,15.2-15.21,15.2-15.21-6.8-15.21-15.2,6.8-15.25,15.21-15.25"/>
      <path id="path448" class="cls-2" d="M395.07,198.13c8.41,0,15.23,6.83,15.23,15.25s-6.81,15.2-15.23,15.2-15.21-6.83-15.21-15.2,6.83-15.25,15.21-15.25"/>
      <path id="path450" class="cls-2" d="M364,229.2c8.41,0,15.23,6.79,15.23,15.23s-6.81,15.21-15.23,15.21-15.2-6.83-15.2-15.21,6.81-15.23,15.2-15.23"/>
      <path id="path452" class="cls-2" d="M336.13,262.93c8.41,0,15.24,6.8,15.24,15.23s-6.83,15.21-15.24,15.21-15.21-6.83-15.21-15.21,6.83-15.23,15.21-15.23"/>
      <path id="path454" class="cls-2" d="M311.33,299.33c8.39,0,15.21,6.83,15.21,15.25s-6.83,15.2-15.21,15.2-15.21-6.8-15.21-15.2,6.81-15.25,15.21-15.25"/>
      <path id="path456" class="cls-2" d="M290.13,338.13c8.41,0,15.23,6.83,15.23,15.25s-6.81,15.2-15.23,15.2-15.21-6.8-15.21-15.2,6.81-15.25,15.21-15.25"/>
      <path id="path458" class="cls-2" d="M272.67,379.2c8.4,0,15.21,6.85,15.21,15.29s-6.81,15.19-15.21,15.19-15.23-6.83-15.23-15.19,6.81-15.29,15.23-15.29"/>
      <path id="path460" class="cls-2" d="M259.2,422c8.4,0,15.23,6.85,15.23,15.25s-6.83,15.2-15.23,15.2-15.21-6.83-15.21-15.2,6.83-15.25,15.21-15.25"/>
      <path id="path462" class="cls-2" d="M250,466.67c8.43,0,15.24,6.85,15.24,15.25s-6.81,15.2-15.24,15.2-15.21-6.84-15.21-15.2,6.81-15.25,15.21-15.25"/>
      <path id="path464" class="cls-2" d="M245.07,512.67c8.43,0,15.24,6.85,15.24,15.25s-6.81,15.23-15.24,15.23-15.21-6.83-15.21-15.23,6.8-15.25,15.21-15.25"/>
      <path id="path466" class="cls-2" d="M1120.13,512.67c8.43,0,15.24,6.85,15.24,15.25s-6.81,15.23-15.24,15.23-15.21-6.83-15.21-15.23,6.81-15.25,15.21-15.25"/>
      <path id="path468" class="cls-2" d="M1114.13,462.93c8.44,0,15.25,6.85,15.25,15.27s-6.81,15.23-15.25,15.23-15.25-6.83-15.25-15.23,6.87-15.27,15.25-15.27"/>
      <path id="path470" class="cls-2" d="M1102.53,415.2c8.41,0,15.24,6.83,15.24,15.23s-6.83,15.23-15.24,15.23-15.25-6.83-15.25-15.23,6.85-15.23,15.25-15.23"/>
      <path id="path472" class="cls-2" d="M1085.6,369.73c8.41,0,15.21,6.83,15.21,15.23s-6.8,15.23-15.21,15.23-15.24-6.83-15.24-15.23,6.84-15.23,15.24-15.23"/>
      <path id="path474" class="cls-2" d="M1063.73,326.93c8.4,0,15.23,6.83,15.23,15.25s-6.83,15.2-15.23,15.2-15.25-6.8-15.25-15.2,6.84-15.25,15.25-15.25"/>
      <path id="path476" class="cls-2" d="M1037.33,287.2c8.41,0,15.25,6.83,15.25,15.23s-6.84,15.23-15.25,15.23-15.24-6.8-15.24-15.23,6.85-15.23,15.24-15.23"/>
      <path id="path478" class="cls-2" d="M1006.67,250.8c8.43,0,15.21,6.83,15.21,15.27s-6.79,15.19-15.21,15.19-15.24-6.8-15.24-15.19,6.85-15.27,15.24-15.27"/>
      <path id="path480" class="cls-2" d="M972.13,218.13c8.41,0,15.24,6.83,15.24,15.25s-6.83,15.2-15.24,15.2-15.21-6.84-15.21-15.2,6.81-15.25,15.21-15.25"/>
      <path id="path482" class="cls-2" d="M934,189.6c8.39,0,15.21,6.83,15.21,15.23s-6.83,15.23-15.21,15.23-15.25-6.83-15.25-15.23,6.84-15.23,15.25-15.23"/>
      <path id="path484" class="cls-2" d="M892.67,165.33c8.43,0,15.25,6.85,15.25,15.25s-6.83,15.2-15.25,15.2-15.2-6.8-15.2-15.2,6.81-15.25,15.2-15.25"/>
      <path id="path486" class="cls-2" d="M848.67,145.87c8.4,0,15.21,6.83,15.21,15.23s-6.81,15.21-15.21,15.21-15.24-6.81-15.24-15.21,6.8-15.23,15.24-15.23"/>
      <path id="path488" class="cls-2" d="M802,131.6c8.4,0,15.21,6.83,15.21,15.23s-6.81,15.25-15.21,15.25-15.23-6.85-15.23-15.25,6.83-15.23,15.23-15.23"/>
      <path id="path490" class="cls-2" d="M753.2,122.67c8.44,0,15.25,6.85,15.25,15.29s-6.81,15.2-15.25,15.2-15.23-6.83-15.23-15.2,6.84-15.29,15.23-15.29"/>
      <path id="path492" class="cls-2" d="M702.67,119.73c8.43,0,15.24,6.83,15.24,15.27s-6.81,15.21-15.24,15.21-15.24-6.85-15.24-15.21,6.85-15.27,15.24-15.27"/>
      <path id="path494" class="cls-2" d="M652,122.67c8.44,0,15.25,6.85,15.25,15.29s-6.81,15.2-15.25,15.2-15.21-6.83-15.21-15.2,6.83-15.29,15.21-15.29"/>
      <path id="path496" class="cls-2" d="M603.33,131.6c8.43,0,15.24,6.83,15.24,15.25s-6.81,15.23-15.24,15.23-15.21-6.83-15.21-15.23,6.81-15.25,15.21-15.25"/>
      <path id="path498" class="cls-2" d="M556.67,145.87c8.43,0,15.23,6.83,15.23,15.23s-6.8,15.21-15.23,15.21-15.21-6.81-15.21-15.21,6.8-15.23,15.21-15.23"/>
      <path id="path500" class="cls-2" d="M512.53,165.33c8.4,0,15.23,6.83,15.23,15.23s-6.83,15.23-15.23,15.23-15.25-6.83-15.25-15.23,6.84-15.23,15.25-15.23"/>
      <path id="path502" class="cls-2" d="M471.33,189.6c8.43,0,15.24,6.8,15.24,15.23s-6.81,15.21-15.24,15.21-15.23-6.83-15.23-15.21,6.83-15.23,15.23-15.23"/>
      <path id="path504" class="cls-2" d="M433.2,218.13c8.43,0,15.25,6.83,15.25,15.25s-6.83,15.2-15.25,15.2-15.2-6.84-15.2-15.2,6.81-15.25,15.2-15.25"/>
      <path id="path506" class="cls-2" d="M398.67,250.8c8.4,0,15.21,6.83,15.21,15.27s-6.81,15.19-15.21,15.19-15.25-6.8-15.25-15.19,6.83-15.27,15.25-15.27"/>
      <path id="path508" class="cls-2" d="M368,287.2c8.41,0,15.23,6.85,15.23,15.23s-6.81,15.25-15.23,15.25-15.21-6.83-15.21-15.25,6.8-15.23,15.21-15.23"/>
      <path id="path510" class="cls-2" d="M341.6,326.93c8.41,0,15.24,6.83,15.24,15.25s-6.83,15.2-15.24,15.2-15.21-6.8-15.21-15.2,6.8-15.25,15.21-15.25"/>
      <path id="path512" class="cls-2" d="M319.73,369.73c8.4,0,15.21,6.83,15.21,15.23s-6.81,15.23-15.21,15.23-15.24-6.83-15.24-15.23,6.83-15.23,15.24-15.23"/>
      <path id="path514" class="cls-2" d="M302.8,415.2c8.4,0,15.21,6.83,15.21,15.23s-6.81,15.23-15.21,15.23-15.23-6.83-15.23-15.23,6.83-15.23,15.23-15.23"/>
      <path id="path516" class="cls-2" d="M291.2,462.93c8.43,0,15.24,6.85,15.24,15.25s-6.81,15.2-15.24,15.2-15.21-6.8-15.21-15.2,6.81-15.25,15.21-15.25"/>
      <path id="path518" class="cls-2" d="M285.2,512.67c8.44,0,15.25,6.85,15.25,15.25s-6.81,15.23-15.25,15.23-15.2-6.83-15.2-15.23,6.81-15.25,15.2-15.25"/>
    </g>
    <g id="g558">
      <path id="path522" class="cls-3" d="M0,673.47H63.93c53.89,0,91.13,36.99,91.13,85.25v.48c0,48.25-37.24,85.73-91.13,85.73H0v-171.47Zm30.13,27.43v116.6H63.93c36.01,0,59.53-24.24,59.53-57.8v-.49c0-33.56-23.52-58.31-59.53-58.31H30.13Z"/>
      <path id="path524" class="cls-3" d="M183.47,673.47h30.13v171.47h-30.13v-171.47Z"/>
      <path id="path526" class="cls-3" d="M249.73,673.47h67.61c40.17,0,65.16,22.77,65.16,57.32v.49c0,38.45-30.87,58.55-68.6,58.55h-34.04v55.11h-30.13v-171.47Zm65.16,89.16c22.79,0,37-12.75,37-30.63v-.48c0-20.08-14.47-30.63-37-30.63h-35.03v61.73h35.03Z"/>
      <path id="path528" class="cls-3" d="M400.93,772.13v-98.71h30.13v97.49c0,31.84,16.41,48.73,43.36,48.73s43.11-15.92,43.11-47.52v-98.71h30.13v97.24c0,51.2-28.91,76.92-73.73,76.92s-73-25.72-73-75.45"/>
      <path id="path530" class="cls-3" d="M621.6,701.33h-54.37v-27.92h139.13v27.92h-54.37v143.55h-30.39v-143.55Z"/>
      <path id="path532" class="cls-3" d="M789.07,672.27h27.93l75.44,172.69h-31.84l-17.4-41.4h-81.08l-17.64,41.4h-30.85l75.44-172.69Zm43.12,104.6l-29.65-68.59-29.39,68.59h59.04Z"/>
      <path id="path534" class="cls-3" d="M912.27,673.47h63.95c53.88,0,91.12,36.99,91.12,85.25v.48c0,48.25-37.24,85.73-91.12,85.73h-63.95v-171.47Zm30.13,27.43v116.6h33.81c36,0,59.52-24.24,59.52-57.8v-.49c0-33.56-23.52-58.31-59.52-58.31h-33.81Z"/>
      <path id="path536" class="cls-3" d="M1086.4,759.6v-.49c0-48.25,37.23-88.67,89.89-88.67s89.41,39.92,89.41,88.19v.48c0,48.27-37.24,88.68-89.89,88.68s-89.41-39.92-89.41-88.19m147.71,0v-.49c0-33.31-24.25-60.99-58.29-60.99s-57.83,27.19-57.83,60.51v.48c0,33.32,24.27,60.75,58.31,60.75s57.81-26.95,57.81-60.25"/>
      <path id="path538" class="cls-3" d="M1281.07,819.87l18.13-21.55c16.41,14.2,33.07,22.28,54.13,22.28,18.63,0,30.37-8.81,30.37-21.56v-.48c0-12.25-6.85-18.87-38.69-26.21-36.51-8.83-57.08-19.6-57.08-51.2v-.49c0-29.39,24.49-49.72,58.55-49.72,24.99,0,44.83,7.59,62.21,21.56l-16.16,22.77c-15.44-11.51-30.88-17.63-46.55-17.63-17.64,0-27.92,9.07-27.92,20.33v.48c0,13.24,7.83,19.11,40.91,26.95,36.24,8.81,54.87,21.8,54.87,50.21v.49c0,32.08-25.24,51.2-61.24,51.2-26.21,0-50.96-9.07-71.53-27.44"/>
      <path id="path540" class="cls-3" d="M202.27,936.27h19.75l53.36,122.12h-22.52l-12.31-29.28h-57.33l-12.48,29.28h-21.83l53.36-122.12Zm30.49,73.97l-20.97-48.52-20.77,48.52h41.75Z"/>
      <path id="path542" class="cls-3" d="M299.47,937.07h54.04c15.25,0,27.2,4.51,35,12.12,6.4,6.59,10.04,15.6,10.04,26.16v.35c0,19.92-11.95,31.88-28.75,36.72l32.73,45.91h-25.29l-29.79-42.27h-26.68v42.27h-21.31v-121.25Zm52.49,60.11c15.24,0,24.95-7.97,24.95-20.27v-.35c0-13-9.36-20.09-25.12-20.09h-31.01v40.71h31.19Z"/>
      <path id="path544" class="cls-3" d="M422.67,998.13v-.35c0-33.95,25.99-62.71,62.53-62.71,21.15,0,34.13,5.88,46.6,16.45l-13.51,16.11c-9.36-7.97-18.53-12.99-33.96-12.99-22.33,0-39.32,19.57-39.32,42.79v.35c0,24.93,16.45,43.31,41.23,43.31,11.43,0,21.83-3.64,29.28-9.19v-22.69h-31.01v-18.53h51.63v50.93c-11.95,10.21-29.11,18.88-50.59,18.88-37.93,0-62.88-27.03-62.88-62.36"/>
      <path id="path546" class="cls-3" d="M567.2,937.07h89.91v19.05h-68.6v31.52h60.8v19.07h-60.8v32.56h69.47v19.05h-90.77v-121.25Z"/>
      <path id="path548" class="cls-3" d="M686.4,937.07h19.75l64.97,83.84v-83.84h20.95v121.25h-17.84l-66.87-86.27v86.27h-20.96v-121.25Z"/>
      <path id="path550" class="cls-3" d="M856.27,956.8h-38.47v-19.75h98.4v19.75h-38.45v101.52h-21.48v-101.52Z"/>
      <path id="path552" class="cls-3" d="M943.33,937.07h21.31v121.25h-21.31v-121.25Z"/>
      <path id="path554" class="cls-3" d="M1000.27,937.07h19.75l64.96,83.84v-83.84h20.96v121.25h-17.84l-66.87-86.27v86.27h-20.96v-121.25Z"/>
      <path id="path556" class="cls-3" d="M1183.2,936.27h19.76l53.35,122.12h-22.52l-12.29-29.28h-57.35l-12.48,29.28h-21.81l53.35-122.12Zm30.49,73.97l-20.96-48.52-20.79,48.52h41.75Z"/>
    </g>
  </g>
</svg>