<?xml version="1.0" encoding="iso-8859-1"?>
<!-- Generator: Adobe Illustrator 19.0.0, SVG Export Plug-In . SVG Version: 6.00 Build 0)  -->
<svg version="1.1" id="Capa_1" xmlns="http://www.w3.org/2000/svg" xmlns:xlink="http://www.w3.org/1999/xlink" x="0px" y="0px"
	 viewBox="0 0 512 512" style="enable-background:new 0 0 512 512;" xml:space="preserve">
<g>
	<g>
		<g>
			<path d="M414.442,164.79l0.023-0.021c-0.365-0.022-0.732-0.034-1.102-0.034C413.727,164.735,414.083,164.768,414.442,164.79z"/>
			<path d="M114.472,311.179l-57.875,44.833c-4.366,3.382-5.164,9.663-1.781,14.029c1.971,2.544,4.926,3.876,7.912,3.876
				c2.14,0,4.295-0.684,6.117-2.095l57.875-44.833c4.366-3.382,5.164-9.663,1.781-14.029
				C125.117,308.594,118.837,307.797,114.472,311.179z"/>
			<path d="M322.529,312.96c-3.383,4.366-2.585,10.647,1.781,14.03l57.876,44.833c1.822,1.411,3.978,2.095,6.117,2.095
				c2.986,0,5.941-1.333,7.912-3.876c3.383-4.366,2.585-10.647-1.781-14.03l-57.876-44.833
				C332.192,307.797,325.912,308.594,322.529,312.96z"/>
			<path d="M432.378,85.076c-37.012,0-68.205,25.386-77.086,59.66H37.667c-0.625,0-1.248,0.017-1.869,0.047
				c-0.237,0.012-0.471,0.035-0.707,0.051c-0.379,0.026-0.758,0.05-1.135,0.087c-0.288,0.028-0.575,0.068-0.862,0.103
				c-0.32,0.039-0.64,0.075-0.958,0.122c-0.309,0.046-0.615,0.102-0.922,0.155c-0.292,0.051-0.583,0.099-0.873,0.156
				c-0.317,0.063-0.631,0.135-0.946,0.206c-0.276,0.062-0.552,0.123-0.827,0.191c-0.318,0.079-0.633,0.167-0.949,0.254
				c-0.266,0.074-0.531,0.147-0.795,0.226c-0.317,0.095-0.632,0.198-0.947,0.302c-0.256,0.085-0.512,0.17-0.766,0.26
				c-0.316,0.112-0.629,0.23-0.942,0.351c-0.246,0.095-0.491,0.19-0.735,0.29c-0.316,0.13-0.63,0.265-0.943,0.403
				c-0.231,0.102-0.461,0.206-0.69,0.313c-0.321,0.15-0.639,0.304-0.956,0.463c-0.211,0.106-0.422,0.214-0.631,0.324
				c-0.33,0.173-0.657,0.352-0.982,0.535c-0.185,0.104-0.369,0.21-0.553,0.318c-0.344,0.202-0.686,0.409-1.024,0.623
				c-0.154,0.097-0.308,0.196-0.461,0.296c-0.361,0.235-0.719,0.476-1.073,0.724c-0.121,0.085-0.242,0.171-0.362,0.258
				c-0.379,0.273-0.755,0.552-1.125,0.839c-0.089,0.069-0.177,0.139-0.265,0.209c-0.392,0.31-0.779,0.626-1.159,0.953
				c-0.067,0.058-0.134,0.116-0.201,0.174c-0.39,0.339-0.775,0.686-1.153,1.042c-0.027,0.026-0.056,0.049-0.083,0.075
				c-0.015,0.014-0.027,0.03-0.041,0.043C4.513,161.993,0,171.677,0,182.403v206.854c0,20.77,16.897,37.667,37.667,37.667h375.696
				c20.77,0,37.667-16.897,37.667-37.667V242.091c34.931-8.42,60.97-39.914,60.97-77.393C512,120.794,476.281,85.076,432.378,85.076
				z M37.667,164.735h315.09c0.007,15.866,4.697,30.65,12.735,43.075l-113.577,99.82c-15.05,13.227-37.748,13.229-52.8,0
				L36.589,164.79C36.948,164.768,37.303,164.735,37.667,164.735z M431.031,389.257h-0.001c0,9.742-7.926,17.667-17.667,17.667
				H37.667c-9.741,0-17.667-7.926-17.667-17.667V182.403c0-1.715,0.258-3.368,0.715-4.937l165.197,145.186
				c11.29,9.923,25.444,14.883,39.604,14.882c14.155-0.001,28.315-4.962,39.603-14.882l113.244-99.526
				c13.897,12.857,32.368,20.819,52.668,21.159V389.257z M451.03,221.315c-5.872,1.94-12.139,3.004-18.652,3.004
				c-0.452,0-0.898-0.024-1.348-0.034c-14.324-0.32-27.412-5.711-37.543-14.453c-5.069-4.374-9.392-9.581-12.761-15.411
				c-5.053-8.747-7.963-18.88-7.97-29.686c0-0.013-0.001-0.025-0.001-0.038c0-7,1.223-13.717,3.448-19.962
				c8.229-23.086,30.298-39.66,56.174-39.66c32.876,0,59.622,26.746,59.622,59.622C492,191.06,474.796,213.465,451.03,221.315z"/>
			<path d="M437.652,129.983c-1.148-0.766-2.426-1.148-3.828-1.148c-0.957,0-1.818,0.32-2.585,0.957l-11.296,8.615
				c-1.596,1.021-2.393,2.522-2.393,4.499c0,0.753,0.15,1.456,0.416,2.12c0.185,0.462,0.418,0.908,0.732,1.326
				c0.766,1.021,1.723,1.532,2.872,1.532c0.894,0,1.659-0.288,2.298-0.862l0.604-0.604c0.223,0.069,0.446,0.14,0.667,0.213
				c-0.22-0.073-0.438-0.151-0.66-0.22l2.451-2.452v3.312v33.168v14.637c0,1.213,0.605,2.17,1.818,2.872
				c0.677,0.393,1.443,0.663,2.28,0.836c0.661,0.136,1.364,0.217,2.124,0.217c1.658,0,3.111-0.35,4.355-1.053
				c1.244-0.702,1.866-1.659,1.866-2.872v-62.221h0.003C439.376,131.706,438.802,130.749,437.652,129.983z"/>
		</g>
	</g>
</g>
<g>
</g>
<g>
</g>
<g>
</g>
<g>
</g>
<g>
</g>
<g>
</g>
<g>
</g>
<g>
</g>
<g>
</g>
<g>
</g>
<g>
</g>
<g>
</g>
<g>
</g>
<g>
</g>
<g>
</g>
</svg>
