<svg xmlns="http://www.w3.org/2000/svg" width="21" height="25" viewBox="0 0 21 25">
    <path fill="#4A5D68" fill-rule="evenodd" d="M20.17 19.203c-.22-.208-2.013-2.082-2.013-7.994a8.794 8.794 0 0 0-2.068-5.495 7.823 7.823 0 0 0-2.525-2.027.84.84 0 0 0 0-.149c0-1.669-1.326-3.022-2.962-3.022-1.635 0-2.961 1.353-2.961 3.022a.84.84 0 0 0 0 .149c-.97.49-1.83 1.18-2.526 2.027a8.794 8.794 0 0 0-2.067 5.495c0 5.9-1.788 7.769-2.009 7.978a1.586 1.586 0 0 0-.684 1.802c.215.722.876 1.21 1.616 1.192h5.266a.83.83 0 0 0 0 1.132 4.57 4.57 0 0 0 3.306 1.424 4.57 4.57 0 0 0 3.306-1.424.831.831 0 0 0 0-1.099h5.336c.74.018 1.4-.47 1.616-1.192a1.593 1.593 0 0 0-.63-1.819zm-9.552-17.06c.564.049 1.052.42 1.26.956a6.06 6.06 0 0 0-2.52 0 1.495 1.495 0 0 1 1.26-.956zm0 2.472c3.414 0 5.924 3.517 5.924 6.594-.03 1.852.181 3.7.63 5.494H4.065a21.24 21.24 0 0 0 .63-5.494c0-3.077 2.51-6.594 5.923-6.594zM10.581 23.1a2.948 2.948 0 0 1-2.154-.907h4.254a2.943 2.943 0 0 1-2.1.907zm-8.578-2.55A5.349 5.349 0 0 0 3.5 18.352h14.242c.309.85.824 1.606 1.497 2.197H2.003z"/>
</svg>
