<svg width="477" height="521" viewBox="0 0 477 521" fill="none" xmlns="http://www.w3.org/2000/svg">
<line x1="15" y1="506" x2="462" y2="506" stroke="#4594B6" stroke-width="30" stroke-linecap="round"/>
<path d="M424.649 18.2637C400.254 -6.08789 360.75 -6.08789 336.356 18.2637L314.254 40.4863L78.9846 275.631L78.4846 276.135C78.3635 276.256 78.3635 276.385 78.2346 276.385C77.9846 276.76 77.6096 277.131 77.3635 277.506C77.3635 277.631 77.2346 277.631 77.2346 277.756C76.9846 278.131 76.8635 278.381 76.6096 278.756C76.4885 278.881 76.4885 279.002 76.3635 279.131C76.2385 279.506 76.1135 279.756 75.9846 280.131C75.9846 280.252 75.8635 280.252 75.8635 280.381L23.6643 437.35C22.133 441.818 23.2971 446.768 26.6604 450.084C29.0237 452.416 32.2112 453.721 35.5276 453.709C36.883 453.686 38.2268 453.475 39.5237 453.084L196.371 400.76C196.492 400.76 196.492 400.76 196.621 400.639C197.016 400.521 197.395 400.354 197.742 400.135C197.84 400.123 197.926 400.08 197.996 400.014C198.367 399.764 198.867 399.51 199.242 399.26C199.614 399.014 199.992 398.639 200.367 398.389C200.492 398.26 200.614 398.26 200.614 398.139C200.742 398.014 200.992 397.893 201.117 397.639L458.488 140.268C482.84 115.873 482.84 76.3691 458.488 51.9785L424.649 18.2637ZM192.375 371.412L105.461 284.502L322.996 66.9668L409.91 153.877L192.375 371.412ZM93.219 307.604L169.149 383.529L55.133 421.49L93.219 307.604ZM440.883 122.783L427.645 136.146L340.727 49.2285L354.094 35.8691C368.715 21.2598 392.414 21.2598 407.039 35.8691L441.004 69.834C455.516 84.5215 455.461 108.166 440.883 122.783Z" fill="#4594B6"/>
</svg>
