<svg xmlns="http://www.w3.org/2000/svg" width="45" height="45" viewBox="0 0 45 45">
    <g fill="none" fill-rule="evenodd" stroke="#4A4A4A" stroke-linecap="round" stroke-linejoin="round" stroke-width="2">
        <path d="M27.063 9.813a8.125 8.125 0 1 1-16.251-.001 8.125 8.125 0 0 1 16.25 0z"/>
        <path d="M1.063 35.813c0-9.872 8.003-17.876 17.875-17.876 4.14 0 7.953 1.409 10.984 3.772M23.813 34.188c0 5.384 4.365 9.75 9.75 9.75 5.384 0 9.75-4.366 9.75-9.75 0-5.387-4.366-9.75-9.75-9.75-5.385 0-9.75 4.363-9.75 9.75z"/>
        <path d="M39.25 30.938l-7.313 7.312-3.25-3.25"/>
    </g>
</svg>
